<svg width="250" height="100" xmlns="http://www.w3.org/2000/svg" xmlns:xlink="http://www.w3.org/1999/xlink" version="1.1" id="Layer_1" x="0px" y="0px" viewBox="0 0 790.2 171.8" style="enable-background:new 0 0 790.2 171.8;" xml:space="preserve">
<style type="text/css">
	.st0{fill:#000000;}
	.st1{fill:#27B2E7;}
</style>
<g>
	<path d="M85.9,0C38.5,0,0,38.5,0,85.9s38.5,85.9,85.9,85.9s85.9-38.5,85.9-85.9S133.3,0,85.9,0z M108.2,52.5H63.6   c-6.4,0-11.6,5.2-11.6,11.6s5.2,11.6,11.6,11.6h77.1l0,32.1c0,18-14.6,32.6-32.6,32.6h-0.5h-44c-18,0-32.6-14.6-32.6-32.6V82.1   c0,0,0,0,0,0l0,0v0c4.5,8.1,12,14.4,21,17.4l0,0v8.3c0,6.4,5.2,11.6,11.6,11.6v0h44.6v0c6.4,0,11.6-5.2,11.6-11.6   c0,0,0-11.1,0-11.1H63.6C45.6,96.6,31,82,31,64s14.6-32.6,32.6-32.6h44.6c18,0,32.6,14.6,32.6,32.6l0,6.5l-21,0V64   C119.7,57.7,114.5,52.5,108.2,52.5z"></path>
	<g>
		<path d="M374.1,85.3c0,18.2-10.2,27.9-23.7,27.9c-14,0-23-10.8-23-26.9c0-16.8,9.6-27.8,23.7-27.8    C365.6,58.6,374.1,69.6,374.1,85.3z M334.7,86.2c0,11.3,5.3,20.6,16.1,20.6c10.8,0,16.1-9.1,16.1-21.1c0-10.5-4.7-20.7-16-20.7    C339.5,65,334.7,74.6,334.7,86.2z"></path>
		<path d="M431.1,85.3c0,18.2-10.2,27.9-23.7,27.9c-14,0-23-10.8-23-26.9c0-16.8,9.6-27.8,23.7-27.8    C422.6,58.6,431.1,69.6,431.1,85.3z M391.7,86.2c0,11.3,5.3,20.6,16.1,20.6c10.8,0,16.1-9.1,16.1-21.1c0-10.5-4.7-20.7-16-20.7    C396.5,65,391.7,74.6,391.7,86.2z"></path>
		<path d="M451.8,65.2h-16.1v-5.8h39.2v5.8h-16.2v47.1h-6.9V65.2z"></path>
		<path d="M490.5,59.4v22.1h25.6V59.4h6.9v52.9h-6.9V87.5h-25.6v24.8h-6.8V59.4H490.5z"></path>
		<polygon points="292.9,100.6 309.8,71.4 309.8,112.3 316.3,112.3 316.3,58.6 309.8,58.6 289.3,93.9 268.8,58.6 262.3,58.6     262.3,112.3 268.8,112.3 268.8,71.4 285.6,100.6   "></polygon>
		<path d="M581.2,103.7c-4.9,5.3-11.9,8.6-19.7,8.6c-14.9,0-26.9-12-26.9-26.9s12-26.9,26.9-26.9c6.3,0,12,2.1,16.6,5.7l-7,8.9    c-2.7-2.1-6-3.3-9.6-3.3c-8.6,0-15.6,7-15.6,15.6s7,15.6,15.6,15.6c3.1,0,6-0.9,8.5-2.5l0,0v-7.5h-8.4V79.8h19.7L581.2,103.7    L581.2,103.7z"></path>
		<path d="M719.9,59.4H698v52.9h11.9V93.6h10c9.4,0,17.1-7.7,17.1-17.1C737,67.1,729.4,59.4,719.9,59.4z M719.9,82.3h-10V70.7h10    c3.2,0,5.8,2.6,5.8,5.8S723.1,82.3,719.9,82.3z"></path>
		<polygon points="778.2,59.4 778.2,80.7 758.6,80.7 758.6,59.4 746.6,59.4 746.6,112.4 758.6,112.4 758.6,91.1 778.2,91.1     778.2,112.4 790.2,112.4 790.2,59.4   "></polygon>
		<polygon points="652.2,112.4 663.9,74 675.7,112.4 688.1,112.4 671.9,59.4 656,59.4 639.8,112.4   "></polygon>
		<path d="M622,87.8c5.4-2.2,9.2-7.7,9.2-14.1c0-8.4-6.6-15.2-14.7-15.2h-23.1v54.2h11.9V91.9h7.1l8.8,20.8h12.2L622,87.8z     M612.4,83.3h-7.1v-15h7.1c4.1,0,7.5,3.4,7.5,7.5C619.9,79.9,616.6,83.3,612.4,83.3z"></path>
		<path d="M221.1,104.1c3.1,1.9,7.6,3.5,12.3,3.5c7,0,11.1-3.7,11.1-9c0-5-2.8-7.8-10-10.5c-8.7-3.1-14-7.5-14-15    c0-8.3,6.8-14.4,17.1-14.4c5.4,0,9.4,1.3,11.7,2.6l-1.9,5.6c-1.7-1-5.3-2.5-10.1-2.5c-7.2,0-10,4.3-10,7.9c0,5,3.2,7.4,10.5,10.2    c9,3.5,13.5,7.8,13.5,15.6c0,8.2-6,15.3-18.6,15.3c-5.1,0-10.7-1.5-13.5-3.4L221.1,104.1z"></path>
	</g>
</g>
</svg>